<?xml version="1.0" encoding="UTF-8" standalone="no"?>
<!-- Created with Inkscape (http://www.inkscape.org/) -->

<svg
   xmlns:dc="http://purl.org/dc/elements/1.1/"
   xmlns:cc="http://creativecommons.org/ns#"
   xmlns:rdf="http://www.w3.org/1999/02/22-rdf-syntax-ns#"
   xmlns:svg="http://www.w3.org/2000/svg"
   xmlns="http://www.w3.org/2000/svg"
   xmlns:sodipodi="http://sodipodi.sourceforge.net/DTD/sodipodi-0.dtd"
   xmlns:inkscape="http://www.inkscape.org/namespaces/inkscape"
   width="1052.3622"
   height="744.09448"
   id="svg2"
   version="1.1"
   inkscape:version="0.91 r13725"
   sodipodi:docname="logo_NM.svg"
   inkscape:export-filename="/home/marcos/Desktop/logoNM.png"
   inkscape:export-xdpi="45"
   inkscape:export-ydpi="45">
  <defs
     id="defs4" />
  <sodipodi:namedview
     id="base"
     pagecolor="#ffffff"
     bordercolor="#666666"
     borderopacity="1.0"
     inkscape:pageopacity="0.0"
     inkscape:pageshadow="2"
     inkscape:zoom="0.6792039"
     inkscape:cx="763.64278"
     inkscape:cy="145.99285"
     inkscape:document-units="px"
     inkscape:current-layer="g3001"
     showgrid="false"
     inkscape:window-width="1333"
     inkscape:window-height="744"
     inkscape:window-x="33"
     inkscape:window-y="24"
     inkscape:window-maximized="1" />
  <metadata
     id="metadata7">
    <rdf:RDF>
      <cc:Work
         rdf:about="">
        <dc:format>image/svg+xml</dc:format>
        <dc:type
           rdf:resource="http://purl.org/dc/dcmitype/StillImage" />
        <dc:title />
      </cc:Work>
    </rdf:RDF>
  </metadata>
  <g
     inkscape:label="Layer 1"
     inkscape:groupmode="layer"
     id="layer1"
     transform="translate(0,-308.2677)">
    <g
       style="fill:none;stroke:none"
       transform="matrix(1.0184314,0,0,1.0184314,-17.49695,25.627958)"
       id="g3001">
      <path
         sodipodi:nodetypes="cccccccccccccccccc"
         inkscape:connector-curvature="0"
         id="path3002"
         d="m 155.6246,847.4562 0,-66.76479 4,0 4,0 0,66.76479 0,66.76479 -4,0 -4,0 z m -21,-15.12897 0,-51.63582 3.5,0 3.5,0 0,51.63582 0,51.63581 -3.5,0 -3.5,0 z"
         style="fill:#627c6b" />
      <path
         sodipodi:nodetypes="ccccccccccccccccccssccssssscssc"
         style="fill:#627c6b"
         d="m 235.3153,847.74497 0,-66.76482 4,0 4,0 0,66.76482 0,66.76479 -4,0 -4,0 z m -21,-15.129 0,-51.63582 4,0 4,0 0,51.63582 0,51.63585 -4,0 -4,0 z m 48.3741,-114.45393 c 0,-3.97958 0.167,-5.52278 0.366,-3.42933 0.1991,2.09344 0.1972,5.34946 0,7.23559 -0.2014,1.88613 -0.3643,0.17332 -0.362,-3.80626 z m -9.5016,-21.21344 c -1.2439,-1.04328 -1.2085,-1.06655 0.3775,-0.24835 1.6658,0.8593 2.1955,1.39946 1.3725,1.39946 -0.2077,0 -0.9952,-0.518 -1.75,-1.15111 z m -22.6225,-5.88013 c 0.9625,-0.16544 2.5375,-0.16544 3.5,0 0.9625,0.16546 0.175,0.30083 -1.75,0.30083 -1.925,0 -2.7125,-0.13537 -1.75,-0.30083 z"
         id="path3024"
         inkscape:connector-curvature="0" />
      <path
         sodipodi:nodetypes="cccccccccccccccccc"
         inkscape:connector-curvature="0"
         id="path3040"
         d="m 318.3801,847.53826 0,-66.76483 4,0 4,0 0,66.76483 0,66.76482 -4,0 -4,0 z m -21,-15.129 0,-51.63583 3.5,0 3.5,0 0,51.63583 0,51.63586 -3.5,0 -3.5,0 z"
         style="fill:#627c6b" />
      <path
         style="fill:#000000"
         d="m 76.65452,638.18447 0,186.59375 21.9375,0 0,-9.9375 0,-10.5 5.46875,0 5.46875,0 0.28125,-46.75 0.28125,-46.75 2.71875,-5.125 c 3.3663,-6.38129 10.4291,-12.7127 16.5,-14.78125 2.5424,-0.8663 7.6711,-1.59375 11.375,-1.59375 8.9515,0 17.64535,4.30024 22.96875,11.34375 6.3575,8.41159 6.2888,7.68635 6.6875,57.90625 l 0.375,45.75 4.9375,0 4.9375,0 0,0.4375 3.625,0 4.9375,0 0.3125,-45.75 0.3125,-45.75 2.65625,-5.625 c 5.5933,-11.93064 16.24555,-18.34278 29.34375,-17.65625 12.3736,0.64855 22.0813,7.6803 26.375,19.15625 2.0638,5.51586 2.125,7.22576 2.125,50.6875 l 0,44.9375 5.5,0 5.5,0 0,10.5 0,9.5 0.0625,0 0,-9.75 0,-10.4375 5.25,-0.3125 5.25,-0.3125 0.5,-46.5 c 0.4806,-44.69971 0.5924,-46.67422 2.625,-51 8.0319,-17.09381 30.215,-22.60846 45.6875,-11.375 5.7974,4.20909 10.1896,10.83837 11.625,17.53125 0.6568,3.0624 1.0625,21.52926 1.0625,48.40625 l 0,43.4375 5,0 5,0 0,10.5 0,9.8125 643.34378,0 0,-186.59375 z m 431.4375,16.78125 c 2.94671,0 5.4838,1.05471 7.5625,3.15625 2.10154,2.07869 3.125,4.60975 3.125,7.625 l 0,80.1875 61.46875,-40 c 1.7132,-1.09645 3.65686,-1.625 5.78125,-1.625 1.50763,0 2.91672,0.26427 4.21875,0.8125 1.30205,0.54823 2.4156,1.30741 3.375,2.3125 0.9594,0.98223 1.74144,2.13545 2.3125,3.4375 0.59391,1.30203 0.875,2.68589 0.875,4.125 0,3.83759 -1.35262,6.68099 -4.09375,8.53125 l -43.09375,27.9375 44.21875,49.75 c 1.98731,2.19291 2.96875,4.72158 2.96875,7.53125 0,1.43904 -0.28109,2.79172 -0.875,4.09375 -0.57106,1.30205 -1.3531,2.46367 -2.3125,3.46875 -0.9594,0.98223 -2.07295,1.73302 -3.375,2.28125 -1.30203,0.54823 -2.71112,0.84375 -4.21875,0.84375 -2.87819,0 -5.29996,-0.93099 -7.21875,-2.78125 l -47.46875,-53.34375 -12.5625,8.21875 0,37.09375 c 0,2.94667 -1.02346,5.50061 -3.125,7.625 -2.0787,2.12437 -4.61579,3.1875 -7.5625,3.1875 -3.01525,0 -5.55471,-1.06313 -7.65625,-3.1875 -2.07871,-2.12439 -3.125,-4.67833 -3.125,-7.625 l 0,-142.875 c 0,-3.01525 1.04629,-5.54631 3.125,-7.625 2.10154,-2.10154 4.641,-3.15625 7.65625,-3.15625 z m -84.59375,49.34375 c 15.76154,0 29.34302,5.60508 40.71875,16.84375 11.23866,11.23866 16.84375,24.82015 16.84375,40.71875 l 0,46.875 c 0,2.94669 -1.05472,5.46096 -3.15625,7.5625 -2.07869,2.07869 -4.58452,3.125 -7.53125,3.125 -3.01525,0 -5.55471,-1.04631 -7.65625,-3.125 -2.07869,-2.10154 -3.125,-4.61581 -3.125,-7.5625 l 0,-2.0625 c -5.13964,4.11165 -10.71949,7.24459 -16.75,9.4375 -6.0305,2.19291 -12.4909,3.3125 -19.34375,3.3125 -15.8986,0 -29.44884,-5.63638 -40.6875,-16.875 -11.23867,-11.23867 -16.875,-24.7889 -16.875,-40.6875 0,-15.8986 5.63633,-29.48009 16.875,-40.71875 11.23866,-11.23867 24.7889,-16.84375 40.6875,-16.84375 z m 246.71875,0 c 15.76154,0 29.31178,5.60509 40.6875,16.84375 5.61933,5.55081 9.84658,11.73251 12.65625,18.5625 2.80966,6.80716 4.21875,14.20695 4.21875,22.15625 0,3.08379 -1.05471,5.62325 -3.15625,7.65625 -2.07869,2.01017 -4.641,3.03125 -7.65625,3.03125 l -81.40625,0 c 1.16497,3.76907 2.8948,7.21429 5.15625,10.34375 2.26143,3.10663 4.8994,5.7614 7.9375,8 3.06094,2.21576 6.40765,3.95399 10.0625,5.1875 3.67769,1.23351 7.52535,1.84375 11.5,1.84375 4.52287,0 8.66843,-0.69193 12.4375,-2.0625 3.76905,-1.37057 7.2479,-3.41511 10.46875,-6.15625 2.05585,-1.71322 4.42115,-2.58773 7.09375,-2.65625 3.08379,0 5.64608,0.99823 7.65625,3.03125 2.033,2.01017 3.03125,4.57248 3.03125,7.65625 0,3.01525 -1.00665,5.56311 -3.0625,7.6875 -10.6219,9.31981 -23.16549,14 -37.625,14 -15.8986,0 -29.48008,-5.63638 -40.71875,-16.875 -11.23867,-11.23866 -16.84375,-24.7889 -16.84375,-40.6875 0,-15.8986 5.60508,-29.48008 16.84375,-40.71875 11.23867,-11.23866 24.82015,-16.84375 40.71875,-16.84375 z m 84.375,0 c 2.94672,0 5.45255,1.02346 7.53125,3.125 2.10154,2.0787 3.15625,4.61579 3.15625,7.5625 l 0,2.03125 c 5.13963,-4.11171 10.75075,-7.24459 16.78125,-9.4375 6.03051,-2.19291 12.45965,-3.28125 19.3125,-3.28125 3.01525,0 6.23823,0.18258 9.6875,0.59375 3.47211,0.41117 6.66147,1.17639 9.5625,2.25 2.92388,1.05077 5.36246,2.49347 7.28125,4.34375 1.9188,1.85026 2.875,4.24077 2.875,7.1875 0,1.50763 -0.31234,2.91672 -0.90625,4.21875 -0.57107,1.30205 -1.32186,2.46366 -2.28125,3.46875 -0.9594,0.98223 -2.1042,1.73302 -3.40625,2.28125 -1.30203,0.54823 -2.71112,0.8125 -4.21875,0.8125 -1.30205,0 -2.78679,-0.37119 -4.5,-1.125 -4.3173,-1.71322 -9.02265,-2.5625 -14.09375,-2.5625 -5.00257,0 -9.70793,0.94778 -14.09375,2.84375 -4.38582,1.87311 -8.20222,4.45224 -11.46875,7.71875 -3.24368,3.24368 -5.8228,7.05168 -7.71875,11.4375 -1.87311,4.38583 -2.8125,9.09117 -2.8125,14.09375 l 0,46.875 c 0,2.94667 -1.05471,5.46096 -3.15625,7.5625 -2.0787,2.07869 -4.58453,3.125 -7.53125,3.125 -3.01525,0 -5.55471,-1.04631 -7.65625,-3.125 -2.07871,-2.10154 -3.125,-4.61581 -3.125,-7.5625 l 0,-93.75 c 0,-2.94671 1.04629,-5.4838 3.125,-7.5625 2.10154,-2.10154 4.641,-3.125 7.65625,-3.125 z m 134.875,0 c 17.13211,0 31.82717,6.88204 44.09375,20.65625 1.43911,1.78174 2.15625,3.93319 2.15625,6.46875 0,3.08377 -0.99824,5.65448 -3.03125,7.6875 -2.01017,2.01017 -4.57248,3 -7.65625,3 -2.19291,0 -4.07169,-0.61024 -5.625,-1.84375 -1.53047,-1.23351 -2.99841,-2.5609 -4.4375,-4 -6.9899,-6.98991 -15.49485,-10.5 -25.5,-10.5 -9.86809,0 -17.7628,3.03199 -23.65625,9.0625 -1.09645,1.09645 -1.625,2.5812 -1.625,4.5 0,1.91879 0.87451,3.22096 2.65625,3.90625 l 48.125,15.84375 c 6.71579,2.60408 11.23253,5.12673 13.5625,7.59375 l -0.0937,0 c 5.20816,5.2767 7.8125,11.49804 7.8125,18.625 0,5.27668 -1.40068,10.00725 -4.1875,14.1875 -2.76397,4.18023 -6.38939,7.75759 -10.84375,10.75 -4.45434,2.96951 -9.44919,5.23634 -15,6.8125 -5.55079,1.57615 -11.13067,2.375 -16.75,2.375 -17.26917,0 -31.96421,-6.83164 -44.09375,-20.46875 -1.50763,-1.98733 -2.28125,-4.22048 -2.28125,-6.6875 0,-3.08377 1.02108,-5.61483 3.03125,-7.625 2.03301,-2.03302 4.57248,-3.0625 7.65625,-3.0625 2.26145,0 4.2051,0.68352 5.78125,2.03125 1.57617,1.32489 3.01047,2.61024 4.3125,3.84375 6.98991,6.9899 15.52006,10.46875 25.59375,10.46875 9.79956,0 17.66302,-3.08245 23.625,-9.25 1.02792,-1.16499 1.5625,-2.57406 1.5625,-4.21875 0,-1.91879 -0.93099,-3.24619 -2.78125,-4 l -48,-15.84375 c -6.44167,-2.46702 -10.95842,-4.98966 -13.5625,-7.59375 l 0.0937,0 c -5.20816,-5.27668 -7.8125,-11.46679 -7.8125,-18.59375 0,-5.20816 1.39228,-9.92192 4.15625,-14.125 2.78682,-4.22593 6.38939,-7.80329 10.84375,-10.75 4.45434,-2.94673 9.48885,-5.24476 15.0625,-6.84375 5.59649,-1.62183 11.19317,-2.40625 16.8125,-2.40625 z m -465.96875,21.46875 c -5.07111,0 -9.80168,0.95621 -14.1875,2.875 -4.38582,1.9188 -8.18542,4.51472 -11.40625,7.78125 -3.22085,3.24368 -5.7603,7.05168 -7.65625,11.4375 -1.87311,4.38582 -2.8125,9.06595 -2.8125,14 0,4.93405 0.93939,9.58293 2.8125,13.96875 1.89595,4.38582 4.4354,8.20224 7.65625,11.46875 3.22083,3.24368 7.02043,5.83121 11.40625,7.75 4.38582,1.9188 9.11639,2.875 14.1875,2.875 5.00259,0 9.70793,-0.9562 14.09375,-2.875 4.38582,-1.91879 8.19382,-4.52313 11.4375,-7.8125 3.26651,-3.28938 5.84564,-7.09737 7.71875,-11.4375 1.89596,-4.36297 2.84375,-9.00345 2.84375,-13.9375 0,-4.93405 -0.94779,-9.59737 -2.84375,-13.9375 -1.87311,-4.36299 -4.45224,-8.17939 -7.71875,-11.46875 -3.24368,-3.28937 -7.05168,-5.8937 -11.4375,-7.8125 -4.38582,-1.91879 -9.09116,-2.875 -14.09375,-2.875 z m 246.71875,0 c -3.90612,0 -7.70572,0.61024 -11.40625,1.84375 -3.70053,1.23351 -7.10371,2.98016 -10.1875,5.21875 -3.08377,2.21576 -5.7698,4.90179 -8.03125,8.03125 -2.26143,3.10663 -3.9348,6.54343 -5.03125,10.3125 l 69.28125,0 c -1.16499,-3.76907 -2.88038,-7.20587 -5.1875,-10.3125 -2.28428,-3.12946 -4.97032,-5.81549 -8.03125,-8.03125 -3.03811,-2.23859 -6.38481,-3.98524 -10.0625,-5.21875 -3.65485,-1.23351 -7.43762,-1.84375 -11.34375,-1.84375 z"
         id="path3133"
         inkscape:connector-curvature="0"
         sodipodi:nodetypes="ccccccccccsssccccccccccsssccccccccccsssssccccccccscsccssccscccsccsscccscscssssscsssscscsssssssccscsccccsscccscsssssscscssccssccsscscscsssscssssscssscsscsccccsccsscsssccscsccccscscsssccsccsssccsccsssscccccccs" />
      <path
         sodipodi:nodetypes="ccccccssssscccccccc"
         inkscape:connector-curvature="0"
         id="path3000"
         d="m 110.6246,816.8834 0,-10.5 5.4625,0 5.4626,0 0.2874,-46.75 0.2875,-46.75 2.7026,-5.12335 c 3.3663,-6.38129 10.4601,-12.733 16.531,-14.80155 2.5424,-0.8663 7.6532,-1.5751 11.3571,-1.5751 8.9515,0 17.6605,4.29718 22.9839,11.34069 6.3575,8.41159 6.2743,7.68941 6.673,57.90931 l 0.3632,45.75 4.9446,0 4.9446,0 0,10.5 0,10.5 -41,0 -41,0 z"
         style="fill:#e92124" />
      <path
         style="fill:#409b29"
         d="m 191.3153,817.32236 0,-10.5 4.9364,0 4.9364,0 0.3136,-45.75 0.3136,-45.75 2.6514,-5.65538 c 5.5933,-11.93064 16.2504,-18.34153 29.3486,-17.655 12.3736,0.64855 22.0713,7.70313 26.365,19.17908 2.0638,5.51586 2.135,7.20707 2.135,50.66881 l 0,44.96249 5.5,0 5.5,0 0,10.5 0,10.5 -41,0 -41,0 0,-10.5 z"
         id="path3028"
         inkscape:connector-curvature="0" />
      <path
         inkscape:connector-curvature="0"
         id="path3038"
         d="m 273.3801,817.06036 0,-10.44774 5.25,-0.30226 5.25,-0.30226 0.5,-46.5 c 0.4806,-44.69971 0.5818,-46.67422 2.6144,-51 8.0319,-17.09381 30.2153,-22.62478 45.6878,-11.39132 5.7974,4.20909 10.2006,10.84605 11.636,17.53893 0.6568,3.0624 1.0618,21.52462 1.0618,48.40161 l 0,43.45078 5,0 5,0 0,10.5 0,10.5 -41,0 -41,0 0,-10.44774 z"
         style="fill:#128eac" />
      <path
         id="path3105"
         d="m 486.14827,391.91595 c -324.09885,440.29749 -162.04942,220.14874 0,0 z"
         inkscape:connector-curvature="0"
         style="fill:#000000;fill-opacity:0;fill-rule:nonzero;stroke:none"
         sodipodi:nodetypes="cc" />
      <path
         id="path3107"
         d="m 89.759982,605.32982 0,-235.81262 c 0,-2.49177 0.45305,-4.83253 1.359151,-7.02228 0.906101,-2.22748 2.17086,-4.15294 3.794277,-5.77639 1.661185,-1.66118 3.567778,-2.94482 5.71978,-3.85092 2.15197,-0.90611 4.53049,-1.35916 7.13554,-1.35916 5.32333,0 9.96709,2.20863 13.93129,6.62588 l 151.54538,194.86819 0,-183.48532 c 0,-4.98355 1.75554,-9.23089 5.26662,-12.74202 3.51108,-3.51115 7.7584,-5.26673 12.74195,-5.26673 4.98355,0 9.23086,1.75558 12.74194,5.26673 3.51132,3.51113 5.26698,7.75847 5.26698,12.74202 l 0,235.81262 c 0,2.60503 -0.45305,4.98354 -1.35915,7.13554 -0.9061,2.15198 -2.18974,4.05856 -3.85092,5.71975 -1.62349,1.62344 -3.54902,2.88821 -5.77658,3.79431 -2.18962,0.9061 -4.53038,1.35915 -7.02227,1.35915 -5.32328,0 -9.91045,-2.09536 -13.7615,-6.28609 l -151.71499,-194.86819 0,183.14553 c 0,4.98355 -1.75558,9.23089 -5.26673,12.74202 -3.51113,3.51115 -7.75847,5.26673 -12.74202,5.26673 -4.98355,0 -9.230906,-1.75558 -12.742057,-5.26673 -3.511127,-3.51113 -5.266691,-7.75847 -5.266691,-12.74202 z M 430.05733,468.56533 c -8.38155,0 -16.19673,1.58568 -23.44553,4.75703 -7.24881,3.17135 -13.53485,7.45645 -18.85813,12.85528 -5.32328,5.36109 -9.55175,11.66604 -12.68541,18.91485 -3.09572,7.24878 -4.64358,14.95062 -4.64358,23.10553 0,8.1549 1.54786,15.85675 4.64358,23.10556 3.13366,7.24881 7.36213,13.57263 12.68541,18.97146 5.32328,5.36109 11.60932,9.62732 18.85813,12.79867 7.2488,3.17135 15.06398,4.75703 23.44553,4.75703 8.26823,0 16.02674,-1.58568 23.27554,-4.75703 7.24881,-3.17135 13.5537,-7.47533 18.91467,-12.91193 5.39891,-5.43661 9.64623,-11.74156 12.74195,-18.91485 3.13366,-7.21104 4.70049,-14.89401 4.70049,-23.04891 0,-8.15491 -1.56683,-15.819 -4.70049,-22.99227 -3.09572,-7.21103 -7.34304,-13.53485 -12.74195,-18.97146 -5.36097,-5.4366 -11.66586,-9.74058 -18.91467,-12.91193 -7.2488,-3.17135 -15.00731,-4.75703 -23.27554,-4.75703 z m 59.63265,137.10428 0,-3.39788 c -8.49463,6.79575 -17.7255,12.00583 -27.69261,15.63024 -9.96711,3.6244 -20.61379,5.4366 -31.94004,5.4366 -26.27691,0 -48.7029,-9.28753 -67.27797,-27.86259 -18.57506,-18.57506 -27.86259,-41.00105 -27.86259,-67.27796 0,-26.27689 9.28753,-48.70287 27.86259,-67.27793 18.57507,-18.57506 41.00106,-27.86259 67.27797,-27.86259 26.05027,0 48.47625,9.28753 67.27796,27.86259 18.57506,18.57506 27.86259,41.00104 27.86259,67.27793 l 0,77.47159 c 0,4.87028 -1.73669,9.04211 -5.21008,12.5155 -3.43569,3.43564 -7.58865,5.15346 -12.45888,5.15346 -4.98355,0 -9.21202,-1.71782 -12.68541,-5.15346 -3.43569,-3.47339 -5.15353,-7.64522 -5.15353,-12.5155 z m 79.34033,-172.61211 7.98528,0 0,-63.88009 c 0,-4.87027 1.71773,-9.02323 5.15318,-12.45888 3.47339,-3.47339 7.70186,-5.21008 12.68541,-5.21008 4.87047,0 9.02343,1.73669 12.45888,5.21008 3.47339,3.43565 5.21008,7.58861 5.21008,12.45888 l 0,63.88009 21.23682,0 c 4.87023,0 9.00434,1.73669 12.40234,5.21008 3.39775,3.43564 5.09663,7.5886 5.09663,12.45888 0,4.98355 -1.69888,9.21202 -5.09663,12.68541 -3.398,3.43564 -7.53211,5.15346 -12.40234,5.15346 l -21.23682,0 0,85.45655 c 0,22.53924 11.32625,33.80886 33.97876,33.80886 4.87047,0 9.00459,1.73669 12.40235,5.21008 3.39799,3.43564 5.09699,7.5886 5.09699,12.45888 0,4.98355 -1.699,9.21202 -5.09699,12.68541 -3.39776,3.43564 -7.53188,5.15346 -12.40235,5.15346 -46.32421,0 -69.48631,-23.10556 -69.48631,-69.31669 l 0,-85.45655 -7.98528,0 c -4.75691,0 -8.87205,-1.71782 -12.34544,-5.15346 -3.43569,-3.47339 -5.15353,-7.70186 -5.15353,-12.68541 0,-4.87028 1.71784,-9.02324 5.15353,-12.45888 3.47339,-3.47339 7.58853,-5.21008 12.34544,-5.21008 z m 214.40621,35.50783 c -8.38155,0 -16.19672,1.58568 -23.44553,4.75703 -7.2488,3.17135 -13.53484,7.45645 -18.85812,12.85528 -5.32328,5.36109 -9.55175,11.66604 -12.68541,18.91485 -3.09572,7.24878 -4.64358,14.95062 -4.64358,23.10553 0,8.1549 1.54786,15.85675 4.64358,23.10556 3.13366,7.24881 7.36213,13.57263 12.68541,18.97146 5.32328,5.36109 11.60932,9.62732 18.85812,12.79867 7.24881,3.17135 15.06398,4.75703 23.44553,4.75703 8.26823,0 16.02675,-1.58568 23.27555,-4.75703 7.24881,-3.17135 13.5537,-7.47533 18.91467,-12.91193 5.39891,-5.43661 9.64622,-11.74156 12.74195,-18.91485 3.13365,-7.21104 4.70048,-14.89401 4.70048,-23.04891 0,-8.15491 -1.56683,-15.819 -4.70048,-22.99227 -3.09573,-7.21103 -7.34304,-13.53485 -12.74195,-18.97146 -5.36097,-5.4366 -11.66586,-9.74058 -18.91467,-12.91193 -7.2488,-3.17135 -15.00732,-4.75703 -23.27555,-4.75703 z m 59.63265,137.10428 0,-3.39788 c -8.49463,6.79575 -17.72549,12.00583 -27.6926,15.63024 -9.96711,3.6244 -20.61379,5.4366 -31.94005,5.4366 -26.27691,0 -48.7029,-9.28753 -67.27796,-27.86259 -18.57506,-18.57506 -27.86259,-41.00105 -27.86259,-67.27796 0,-26.27689 9.28753,-48.70287 27.86259,-67.27793 18.57506,-18.57506 41.00105,-27.86259 67.27796,-27.86259 26.05027,0 48.47626,9.28753 67.27797,27.86259 18.57506,18.57506 27.86259,41.00104 27.86259,67.27793 l 0,77.47159 c 0,4.87028 -1.73669,9.04211 -5.21008,12.5155 -3.43569,3.43564 -7.58865,5.15346 -12.45888,5.15346 -4.98355,0 -9.21202,-1.71782 -12.68541,-5.15346 -3.43569,-3.47339 -5.15354,-7.64522 -5.15354,-12.5155 z m 60.9918,0 0,-236.32228 c 0,-4.98355 1.66119,-9.19315 4.98356,-12.6288 3.3603,-3.47339 7.58877,-5.21008 12.6854,-5.21008 5.09688,0 9.3065,1.73669 12.62887,5.21008 3.36006,3.43565 5.04009,7.64525 5.04009,12.6288 l 0,218.48341 8.15491,0 c 4.87047,0 9.02343,1.73669 12.45888,5.21008 3.47339,3.43564 5.21008,7.64524 5.21008,12.62879 0,4.87028 -1.73669,9.04211 -5.21008,12.5155 -3.43545,3.43564 -7.58841,5.15346 -12.45888,5.15346 l -25.99349,0 c -4.87047,0 -9.00459,-1.71782 -12.40234,-5.15346 -3.398,-3.47339 -5.097,-7.64522 -5.097,-12.5155 z"
         inkscape:connector-curvature="0"
         style="fill:#000000;fill-rule:nonzero;stroke:none"
         sodipodi:nodetypes="sscsssccssscsssccsccsssssssccsccsssccsccssscsssssscsssscsscscscscscscscsscscsscscsssssccsccsssccsccssscsssssscsssscssscscscscscsscs" />
    </g>
  </g>
</svg>
